<svg width="20" height="20" viewBox="0 0 20 20" fill="none" xmlns="http://www.w3.org/2000/svg">
<g filter="url(#filter0_b)">
<path d="M15.9205 5.06089C15.5784 4.72455 15.1722 4.45775 14.7252 4.27572C14.2782 4.09369 13.799 4 13.3151 4C12.8312 4 12.3521 4.09369 11.905 4.27572C11.458 4.45775 11.0518 4.72455 10.7098 5.06089L9.99982 5.75857L9.28988 5.06089C8.5989 4.38184 7.66172 4.00035 6.68453 4.00035C5.70733 4.00035 4.77016 4.38184 4.07917 5.06089C3.38819 5.73994 3 6.66092 3 7.62124C3 8.58157 3.38819 9.50255 4.07917 10.1816L4.78911 10.8793L9.99982 16L15.2105 10.8793L15.9205 10.1816C16.2627 9.84543 16.5342 9.44628 16.7194 9.00697C16.9047 8.56765 17 8.09678 17 7.62124C17 7.14571 16.9047 6.67484 16.7194 6.23552C16.5342 5.79621 16.2627 5.39706 15.9205 5.06089Z" fill="#FF5134"/>
<path d="M9.2989 16.7132L9.99982 17.4021L10.7007 16.7132L15.9114 11.5925L16.6212 10.895C17.0572 10.4668 17.404 9.95739 17.6409 9.39548C17.8778 8.83353 18 8.23058 18 7.62124C18 7.01191 17.8778 6.40896 17.6409 5.84701L16.7194 6.23552L17.6409 5.84701C17.404 5.28524 17.0574 4.77597 16.6216 4.34781C16.1858 3.91942 15.6694 3.58049 15.1023 3.34956C14.5352 3.11864 13.928 3 13.3151 3C12.7023 3 12.095 3.11864 11.5279 3.34956C10.9609 3.58046 10.4445 3.91933 10.0088 4.34765C10.0088 4.3477 10.0087 4.34776 10.0087 4.34781L9.99982 4.35651L9.9908 4.34765C9.111 3.48304 7.92137 3.00035 6.68453 3.00035C5.44768 3.00035 4.25806 3.48304 3.37825 4.34765C2.49786 5.21284 2 6.39003 2 7.62124C2 8.85246 2.49786 10.0297 3.37825 10.8948L4.08819 11.5925L9.2989 16.7132Z" stroke="white" stroke-width="2"/>
</g>
<defs>
<filter id="filter0_b" x="-11" y="-10" width="42" height="40.8041" filterUnits="userSpaceOnUse" color-interpolation-filters="sRGB">
<feFlood flood-opacity="0" result="BackgroundImageFix"/>
<feGaussianBlur in="BackgroundImage" stdDeviation="6"/>
<feComposite in2="SourceAlpha" operator="in" result="effect1_backgroundBlur"/>
<feBlend mode="normal" in="SourceGraphic" in2="effect1_backgroundBlur" result="shape"/>
</filter>
</defs>
</svg>
